<svg xmlns="http://www.w3.org/2000/svg" xmlns:xlink="http://www.w3.org/1999/xlink" width="24" height="24" viewBox="0 0 24 24">
  <defs>
    <clipPath id="clip-binance_icon_24">
      <rect width="24" height="24"/>
    </clipPath>
  </defs>
  <g id="binance_icon_24" clip-path="url(#clip-binance_icon_24)">
    <g id="clipboard" transform="translate(-58.93 -58.92)">
      <g id="_f6cd2fff" data-name="#f6cd2fff" transform="translate(63.582 58.92)">
        <path id="Path_1" data-name="Path 1" d="M135.32,66.275q3.671-3.681,7.349-7.355,3.68,3.691,7.371,7.372-1.366,1.344-2.718,2.7-2.329-2.325-4.653-4.654-2.323,2.33-4.654,4.652C137.126,68.078,136.219,67.18,135.32,66.275Z" transform="translate(-135.32 -58.92)" fill="#f6cd2f"/>
      </g>
      <g id="_fcdb28ff" data-name="#fcdb28ff" transform="translate(59.672 68.203)">
        <path id="Path_2" data-name="Path 2" d="M71.12,213.37c.642-.684,1.323-1.332,1.983-2l.1.1c-.49.381-.891.862-1.341,1.288C71.62,212.972,71.44,213.272,71.12,213.37Z" transform="translate(-71.12 -211.37)" fill="#fcdb28"/>
      </g>
      <g id="_f4c621ff" data-name="#f4c621ff" transform="translate(58.93 68.218)">
        <path id="Path_3" data-name="Path 3" d="M211.6,214.322q1.36-1.344,2.7-2.7c.909.9,1.808,1.812,2.726,2.7q-1.369,1.357-2.727,2.726C213.412,216.131,212.5,215.23,211.6,214.322Z" transform="translate(-202.303 -211.62)" fill="#f4c621"/>
        <path id="Path_4" data-name="Path 4" d="M61.753,213.07c.876.869,1.741,1.748,2.62,2.614-.914.9-1.813,1.815-2.725,2.718q-1.355-1.363-2.718-2.717c.255-.231.475-.5.742-.717.32-.1.5-.4.739-.609C60.862,213.932,61.263,213.451,61.753,213.07Z" transform="translate(-58.93 -212.982)" fill="#f4c621"/>
        <path id="Path_5" data-name="Path 5" d="M366.272,215.929a1.094,1.094,0,0,1,.35-.275c.177-.015.3.138.444.217l-.015-.075c.79.752,1.534,1.552,2.316,2.313-.9.9-1.82,1.793-2.715,2.7-.909-.9-1.8-1.806-2.712-2.7.233-.212.435-.46.68-.658a.829.829,0,0,0,.346-.2C365.394,216.8,365.844,216.375,366.272,215.929Z" transform="translate(-345.367 -215.407)" fill="#f4c621"/>
      </g>
      <g id="_f8d727ff" data-name="#f8d727ff" transform="translate(78.183 68.204)">
        <path id="Path_6" data-name="Path 6" d="M375.11,213.439c.663-.7,1.363-1.371,2.042-2.059.126.138.272.258.388.4l.015.075c-.142-.08-.267-.233-.444-.217a1.094,1.094,0,0,0-.35.275c-.429.446-.878.872-1.306,1.318A.829.829,0,0,1,375.11,213.439Z" transform="translate(-375.11 -211.38)" fill="#f8d727"/>
      </g>
      <g id="_f2c016ff" data-name="#f2c016ff" transform="translate(63.678 72.848)">
        <path id="Path_7" data-name="Path 7" d="M136.91,290.266q1.313-1.311,2.623-2.625,2.311,2.33,4.629,4.653,2.322-2.332,4.653-4.654c.9.907,1.8,1.815,2.717,2.714-1.834,1.838-3.683,3.662-5.516,5.5-.233.223-.446.469-.7.674a.743.743,0,0,1,.194-.329c.79-.779,1.571-1.569,2.358-2.351q-.072-.07-.141-.142a1.843,1.843,0,0,1-.147.129c-.041-.056-.077-.116-.113-.175q-.16.113-.321.224c-.062-.061-.125-.12-.187-.18-.042.029-.084.058-.125.089l-.122-.09-.14.139-.1-.076-.119.085c-.056-.031-.111-.062-.163-.1-.058.032-.114.065-.172.1a1,1,0,0,0-.444-.071,3.03,3.03,0,0,0-.32.105,1.5,1.5,0,0,1-.269-.127c0,.044,0,.089,0,.135-.206.047-.411.1-.615.15.009-.095.015-.19.024-.284l-.107.063-.068.188c-.034-.083-.063-.169-.1-.251l-.058.061c0,.079,0,.158,0,.236-.062-.025-.125-.048-.188-.069.045-.1.088-.2.134-.3l-.106-.068c-.052.1-.1.2-.142.308l-.083-.161a4.259,4.259,0,0,1-.651.079c-.124-.056-.217-.208-.365-.191a2.021,2.021,0,0,1-.48.2l-.075.134c-.036-.091-.066-.185-.1-.275l-.149.063-.241-.031-.084-.054c-.012.032-.023.066-.034.1l-.116,0,0,.141a.911.911,0,0,0-.227-.153,1.743,1.743,0,0,0-.285.085,1.325,1.325,0,0,0-.507-.1l-2.89-2.888A5.261,5.261,0,0,1,136.91,290.266Z" transform="translate(-136.91 -287.64)" fill="#f2c016"/>
      </g>
      <g id="_fdcf12ff" data-name="#fdcf12ff" transform="translate(63.587 75.473)">
        <path id="Path_8" data-name="Path 8" d="M135.4,330.862c.03-.035.061-.069.092-.1a5.261,5.261,0,0,0,.567.61l2.89,2.888c1.027,1.025,2.046,2.057,3.077,3.078a.889.889,0,0,1,.18.306c-.578-.535-1.111-1.119-1.676-1.668Q137.973,333.41,135.4,330.862Z" transform="translate(-135.4 -330.76)" fill="#fdcf12"/>
      </g>
      <g id="_f1bc10ff" data-name="#f1bc10ff" transform="translate(67.135 78.827)">
        <path id="Path_9" data-name="Path 9" d="M195.5,386.066a2.022,2.022,0,0,0,.48-.2c.149-.018.241.135.365.191a4.259,4.259,0,0,0,.651-.079l.083.161c.046-.1.091-.208.142-.308l.106.068c-.046.1-.089.2-.134.3.063.021.126.044.188.069,0-.079,0-.158,0-.236l.058-.061c.034.083.063.168.1.251l.068-.188.107-.063c-.009.094-.016.189-.024.284.2-.054.409-.1.615-.15,0-.046,0-.09,0-.135a1.5,1.5,0,0,0,.269.127,3.03,3.03,0,0,1,.32-.105,1,1,0,0,1,.444.071c.058-.031.114-.064.172-.1.052.035.107.066.163.1l.119-.085.1.076.14-.139.122.09c.041-.03.083-.06.125-.089l.187.18q.161-.111.321-.224c.036.059.071.119.113.175a1.84,1.84,0,0,0,.147-.129q.069.072.141.142c-.787.782-1.568,1.572-2.358,2.351a.743.743,0,0,0-.194.329c-.36.416-.781.782-1.158,1.185-.172-.2-.386-.356-.538-.566a.889.889,0,0,0-.18-.306c-1.031-1.021-2.05-2.053-3.077-3.078a1.326,1.326,0,0,1,.507.1,1.74,1.74,0,0,1,.285-.085.911.911,0,0,1,.227.153l0-.141.116,0c.011-.033.023-.066.034-.1l.084.054.241.031.149-.063c.037.09.067.183.1.275Z" transform="translate(-193.68 -385.83)" fill="#f1bc10"/>
      </g>
    </g>
  </g>
</svg>
